<svg id="Layer_1" data-name="Layer 1" xmlns="http://www.w3.org/2000/svg" viewBox="0 0 1974.33 1501.83"><defs><style>.cls-1{fill:#fff;}</style></defs><title>Window</title><path class="cls-1" d="M2304.69,350.14H392.74a31.22,31.22,0,0,0-31.19,31.19V1820.77a31.23,31.23,0,0,0,31.19,31.2h1912a31.23,31.23,0,0,0,31.19-31.2V381.33A31.22,31.22,0,0,0,2304.69,350.14ZM2327,1820.77a22.38,22.38,0,0,1-22.35,22.36H392.74a22.38,22.38,0,0,1-22.36-22.36V381.33A22.38,22.38,0,0,1,392.74,359h1912A22.38,22.38,0,0,1,2327,381.33Z" transform="translate(-361.55 -350.14)"/><path class="cls-1" d="M2304.69,350.14H392.74a31.22,31.22,0,0,0-31.19,31.19V491.05H2335.88V381.33A31.22,31.22,0,0,0,2304.69,350.14ZM2327,482.21H370.38V381.33A22.38,22.38,0,0,1,392.74,359h1912A22.38,22.38,0,0,1,2327,381.33Z" transform="translate(-361.55 -350.14)"/><polygon class="cls-1" points="391.88 70.71 358.96 101.62 350.71 93.37 375.16 70.71 350.2 47.55 358.46 39.29 391.88 70.71"/><polygon class="cls-1" points="290.8 93.37 282.55 101.62 249.13 70.2 282.04 39.29 290.3 47.55 265.84 70.2 290.8 93.37"/></svg>