<svg xmlns="http://www.w3.org/2000/svg" viewBox="0 0 1974.33 1493.33"><defs><style>.cls-1{fill:#fff;}</style></defs><title>Asset 1</title><g id="Layer_2" data-name="Layer 2"><g id="Layer_1-2" data-name="Layer 1"><rect x="7.47" y="4.53" width="1961.36" height="1488.8" rx="23.74" ry="23.74"/><path class="cls-1" d="M1943.14,0H31.2A31.23,31.23,0,0,0,0,31.2V140.91H1974.33V31.2A31.23,31.23,0,0,0,1943.14,0Zm22.36,132.07H8.84V31.2A22.38,22.38,0,0,1,31.2,8.84H1943.14A22.38,22.38,0,0,1,1965.5,31.2Z"/><polygon class="cls-1" points="391.88 70.71 358.96 101.62 350.71 93.37 375.16 70.71 350.2 47.55 358.46 39.29 391.88 70.71"/><polygon class="cls-1" points="290.8 93.37 282.55 101.62 249.13 70.2 282.04 39.29 290.3 47.55 265.84 70.2 290.8 93.37"/></g></g></svg>